<svg width="126" height="36" viewBox="0 0 126 36" fill="none" xmlns="http://www.w3.org/2000/svg">
<path d="M1.15796 11.4059L11.4397 1.25806C9.09884 2.14019 6.97304 3.50006 5.20129 5.24876C3.42953 6.99745 2.05172 9.09557 1.15796 11.4059Z" fill="#F5702C"/>
<path d="M17.7503 0.115234C16.9118 0.116483 16.0744 0.175314 15.2442 0.291301L0.17947 15.161C0.0604284 15.9799 0.000454142 16.8061 0 17.6334C0 17.7945 0.00756802 17.9535 0.0118926 18.1146L18.2379 0.126972C18.0757 0.122704 17.9135 0.115234 17.7503 0.115234Z" fill="#F5702C"/>
<path d="M23.0847 0.921956C22.3388 0.691207 21.5782 0.510109 20.8078 0.379883L0.265991 20.6543C0.398056 21.4146 0.58154 22.1654 0.815213 22.9015L23.0847 0.921956Z" fill="#F5702C"/>
<path d="M26.9724 2.66349C26.3759 2.30755 25.7586 1.98686 25.1236 1.70312L1.60547 24.912C1.8925 25.5385 2.21743 26.1475 2.5785 26.7356L26.9724 2.66349Z" fill="#F5702C"/>
<path d="M30.15 5.10478C29.6708 4.64394 29.1654 4.21037 28.6364 3.80615L3.73975 28.383C4.14994 28.9049 4.58958 29.4037 5.05658 29.8769L30.15 5.10478Z" fill="#F5702C"/>
<path d="M32.6884 8.17799C32.3229 7.61728 31.9258 7.07721 31.4991 6.5603L6.52466 31.2097C7.0483 31.6314 7.59589 32.0233 8.16476 32.3835L32.6884 8.17799Z" fill="#F5702C"/>
<path d="M34.5329 11.9353C34.2993 11.2611 34.0238 10.6018 33.7079 9.96118L9.97571 33.3845C10.6255 33.6956 11.2938 33.9675 11.9769 34.1987L34.5329 11.9353Z" fill="#F5702C"/>
<path d="M35.4616 16.5951C35.4134 15.7647 35.305 14.9389 35.1372 14.1238L14.1943 34.7951C15.0195 34.9606 15.8555 35.0676 16.6961 35.1152L35.4616 16.5951Z" fill="#F5702C"/>
<path d="M34.6572 22.9698C35.0289 21.8228 35.2793 20.641 35.4043 19.4431L19.5839 35.0576C20.7976 34.9346 21.9951 34.6875 23.157 34.3202L34.6572 22.9698Z" fill="#F5702C"/>
<path d="M52.0918 24.7006C51.1493 24.7058 50.2151 24.5265 49.3434 24.1729C48.4717 23.8193 47.6797 23.2985 47.0133 22.6407C46.3469 21.9829 45.8194 21.2011 45.4613 20.3407C45.1031 19.4803 44.9215 18.5582 44.927 17.628C44.927 13.6799 48.0894 10.5 52.0918 10.5C56.0942 10.5 59.2576 13.6777 59.2576 17.628C59.2629 18.5583 59.0812 19.4803 58.7229 20.3408C58.3647 21.2012 57.8371 21.983 57.1706 22.6408C56.5041 23.2986 55.7121 23.8193 54.8403 24.1729C53.9685 24.5265 53.0343 24.7058 52.0918 24.7006ZM52.0918 12.6192C49.2202 12.6192 47.2471 14.8803 47.2471 17.6003C47.2471 20.348 49.2202 22.5814 52.0918 22.5814C54.9633 22.5814 56.9364 20.348 56.9364 17.6003C56.9364 14.8803 54.9633 12.6192 52.0918 12.6192Z" fill="#F5702C"/>
<path d="M68.6258 24.3282L65.5229 18.6876H64.5931V24.3282H62.274V10.8713H64.8255C67.4365 10.8713 70.2507 11.5308 70.2507 14.7651C70.2507 16.6559 69.0323 17.771 67.7846 18.2299L71.4108 24.3282H68.6258ZM64.8255 12.9905H64.5931V16.6837L64.8547 16.6559C66.6246 16.6559 67.843 16.3977 67.843 14.8515C67.8138 13.1912 66.683 12.9905 64.8255 12.9905Z" fill="#F5702C"/>
<path d="M82.3455 24.3282L81.0708 21.35H75.5872L74.3396 24.3282H71.7881L77.9376 10.8713H78.7496L84.8699 24.3282H82.3455ZM78.3139 14.9091H78.2566L76.3419 19.5466H80.287L78.3139 14.9091Z" fill="#F5702C"/>
<path d="M97.9519 24.3282L89.3654 15.1951V24.3282H87.0453V10.8713H88.2054L96.7626 20.062V10.8713H99.0839V24.3282H97.9519Z" fill="#F5702C"/>
<path d="M109.088 24.7005C105.026 24.7005 102.096 21.4075 102.096 17.6578C102.096 13.7929 105.026 10.501 109.203 10.501C111.727 10.501 113.497 11.5595 115.265 13.6787L113.526 15.1961C112.161 13.4205 111.031 12.6202 109.174 12.6202C106.331 12.6202 104.474 14.9955 104.504 17.6578C104.504 20.2348 106.505 22.5536 109.088 22.5536C111.142 22.5536 112.916 21.1226 113.177 19.2905H109.176V17.1702H115.731C115.732 21.4652 113.529 24.7005 109.088 24.7005Z" fill="#F5702C"/>
<path d="M118.777 24.3282V10.8713H126V12.9905H121.098V16.0851H126V18.2043H121.098V22.2122H126V24.3314L118.777 24.3282Z" fill="#F5702C"/>
</svg>
